<svg width="1920" height="1080" xmlns="http://www.w3.org/2000/svg">
  <defs>
    <linearGradient id="skyGrad" x1="0%" y1="0%" x2="0%" y2="100%">
      <stop offset="0%" style="stop-color:hsl(220 30% 8%);stop-opacity:1" />
      <stop offset="70%" style="stop-color:hsl(220 35% 12%);stop-opacity:1" />
      <stop offset="100%" style="stop-color:hsl(220 30% 8%);stop-opacity:1" />
    </linearGradient>
    <linearGradient id="aurora1" x1="0%" y1="0%" x2="100%" y2="0%">
      <stop offset="0%" style="stop-color:hsl(160 100% 50%);stop-opacity:0" />
      <stop offset="30%" style="stop-color:hsl(160 100% 50%);stop-opacity:0.6" />
      <stop offset="70%" style="stop-color:hsl(280 100% 70%);stop-opacity:0.8" />
      <stop offset="100%" style="stop-color:hsl(280 100% 70%);stop-opacity:0" />
    </linearGradient>
    <linearGradient id="aurora2" x1="0%" y1="0%" x2="100%" y2="0%">
      <stop offset="0%" style="stop-color:hsl(200 100% 60%);stop-opacity:0" />
      <stop offset="50%" style="stop-color:hsl(200 100% 60%);stop-opacity:0.4" />
      <stop offset="100%" style="stop-color:hsl(160 100% 50%);stop-opacity:0" />
    </linearGradient>
  </defs>
  <rect width="100%" height="100%" fill="url(#skyGrad)"/>
  <path d="M 0 300 Q 400 200 800 300 Q 1200 400 1600 300 Q 1800 250 1920 300 L 1920 200 Q 1600 150 1200 200 Q 800 250 400 200 Q 200 180 0 200 Z" fill="url(#aurora1)"/>
  <path d="M 0 400 Q 300 350 600 400 Q 900 450 1200 400 Q 1500 350 1920 400 L 1920 350 Q 1500 300 1200 350 Q 900 400 600 350 Q 300 300 0 350 Z" fill="url(#aurora2)"/>
  <path d="M 0 250 Q 500 200 1000 250 Q 1500 300 1920 250 L 1920 180 Q 1500 130 1000 180 Q 500 230 0 180 Z" fill="url(#aurora1)" opacity="0.5"/>
  <g opacity="0.3">
    <circle cx="200" cy="150" r="1" fill="hsl(160 100% 60%)"/>
    <circle cx="800" cy="100" r="1.5" fill="hsl(280 100% 70%)"/>
    <circle cx="1400" cy="120" r="1" fill="hsl(200 100% 60%)"/>
    <circle cx="1600" cy="80" r="0.8" fill="hsl(160 100% 60%)"/>
  </g>
</svg>