<svg width="80" height="80" xmlns="http://www.w3.org/2000/svg">
  <defs>
    <pattern id="circuit" width="80" height="80" patternUnits="userSpaceOnUse">
      <rect width="80" height="80" fill="rgba(0, 0, 0, 0.1)"/>
      <!-- Horizontal traces -->
      <line x1="0" y1="20" x2="30" y2="20" stroke="rgba(59, 130, 246, 0.4)" stroke-width="2"/>
      <line x1="50" y1="20" x2="80" y2="20" stroke="rgba(59, 130, 246, 0.4)" stroke-width="2"/>
      <line x1="0" y1="60" x2="25" y2="60" stroke="rgba(59, 130, 246, 0.4)" stroke-width="2"/>
      <line x1="55" y1="60" x2="80" y2="60" stroke="rgba(59, 130, 246, 0.4)" stroke-width="2"/>
      <!-- Vertical traces -->
      <line x1="20" y1="0" x2="20" y2="40" stroke="rgba(59, 130, 246, 0.4)" stroke-width="2"/>
      <line x1="20" y1="60" x2="20" y2="80" stroke="rgba(59, 130, 246, 0.4)" stroke-width="2"/>
      <line x1="60" y1="0" x2="60" y2="35" stroke="rgba(59, 130, 246, 0.4)" stroke-width="2"/>
      <line x1="60" y1="45" x2="60" y2="80" stroke="rgba(59, 130, 246, 0.4)" stroke-width="2"/>
      <!-- Connection points -->
      <circle cx="20" cy="20" r="3" fill="rgba(59, 130, 246, 0.6)"/>
      <circle cx="60" cy="20" r="3" fill="rgba(59, 130, 246, 0.6)"/>
      <circle cx="20" cy="60" r="3" fill="rgba(59, 130, 246, 0.6)"/>
      <circle cx="60" cy="60" r="3" fill="rgba(59, 130, 246, 0.6)"/>
      <!-- Components -->
      <rect x="15" y="35" width="10" height="6" fill="rgba(34, 197, 94, 0.5)" rx="1"/>
      <rect x="55" y="35" width="10" height="6" fill="rgba(34, 197, 94, 0.5)" rx="1"/>
    </pattern>
  </defs>
  <rect width="100%" height="100%" fill="url(#circuit)"/>
</svg>