<svg width="1920" height="1080" xmlns="http://www.w3.org/2000/svg">
  <defs>
    <radialGradient id="galaxyCore" cx="50%" cy="50%" r="50%">
      <stop offset="0%" style="stop-color:hsl(280 100% 60%);stop-opacity:0.8" />
      <stop offset="30%" style="stop-color:hsl(300 80% 70%);stop-opacity:0.6" />
      <stop offset="60%" style="stop-color:hsl(270 40% 8%);stop-opacity:0.4" />
      <stop offset="100%" style="stop-color:hsl(270 40% 8%);stop-opacity:1" />
    </radialGradient>
    <linearGradient id="spiral1" x1="0%" y1="0%" x2="100%" y2="100%">
      <stop offset="0%" style="stop-color:hsl(280 100% 60%);stop-opacity:0" />
      <stop offset="50%" style="stop-color:hsl(280 100% 60%);stop-opacity:0.4" />
      <stop offset="100%" style="stop-color:hsl(300 80% 70%);stop-opacity:0" />
    </linearGradient>
    <pattern id="stars-galaxy" width="100" height="100" patternUnits="userSpaceOnUse">
      <rect width="100" height="100" fill="none"/>
      <circle cx="20" cy="30" r="0.5" fill="hsl(280 100% 80%)" opacity="0.8"/>
      <circle cx="70" cy="15" r="1" fill="hsl(300 80% 70%)" opacity="0.6"/>
      <circle cx="50" cy="60" r="0.7" fill="hsl(240 100% 70%)" opacity="0.7"/>
      <circle cx="90" cy="80" r="0.3" fill="hsl(320 80% 70%)" opacity="0.9"/>
      <circle cx="10" cy="85" r="0.8" fill="hsl(260 100% 70%)" opacity="0.5"/>
    </pattern>
  </defs>
  <rect width="100%" height="100%" fill="hsl(270 40% 8%)"/>
  <ellipse cx="960" cy="540" rx="800" ry="400" fill="url(#galaxyCore)"/>
  <path d="M 960 540 Q 1200 400 1400 540 Q 1200 680 960 540 Q 720 400 520 540 Q 720 680 960 540" fill="url(#spiral1)" opacity="0.6"/>
  <path d="M 960 540 Q 800 300 600 400 Q 800 500 960 540 Q 1120 300 1320 400 Q 1120 500 960 540" fill="url(#spiral1)" opacity="0.4" transform="rotate(45 960 540)"/>
  <rect width="100%" height="100%" fill="url(#stars-galaxy)"/>
</svg>