<svg width="100" height="100" xmlns="http://www.w3.org/2000/svg">
  <defs>
    <pattern id="crystals" width="60" height="60" patternUnits="userSpaceOnUse">
      <rect width="60" height="60" fill="hsl(210 50% 98%)"/>
      <polygon points="30,10 35,20 30,30 25,20" fill="hsl(210 100% 85%)" opacity="0.7"/>
      <polygon points="15,25 25,30 15,35 5,30" fill="hsl(180 100% 90%)" opacity="0.6"/>
      <polygon points="45,25 55,30 45,35 35,30" fill="hsl(210 100% 85%)" opacity="0.6"/>
      <path d="M 30 10 L 30 50 M 10 30 L 50 30 M 20 15 L 40 45 M 40 15 L 20 45" stroke="hsl(210 100% 75%)" stroke-width="0.5" opacity="0.4"/>
    </pattern>
    <pattern id="frost" width="40" height="40" patternUnits="userSpaceOnUse">
      <rect width="40" height="40" fill="none"/>
      <circle cx="20" cy="20" r="8" fill="none" stroke="hsl(180 100% 80%)" stroke-width="1" opacity="0.3"/>
      <path d="M 20 12 L 20 28 M 12 20 L 28 20 M 15 15 L 25 25 M 25 15 L 15 25" stroke="hsl(210 100% 70%)" stroke-width="0.5" opacity="0.5"/>
      <circle cx="10" cy="10" r="1" fill="hsl(210 100% 85%)" opacity="0.6"/>
      <circle cx="30" cy="30" r="1.5" fill="hsl(180 100% 85%)" opacity="0.7"/>
    </pattern>
  </defs>
  <rect width="100" height="100" fill="url(#crystals)"/>
  <rect width="100" height="100" fill="url(#frost)"/>
</svg>