<svg width="100" height="100" xmlns="http://www.w3.org/2000/svg">
  <defs>
    <pattern id="leaves" width="30" height="30" patternUnits="userSpaceOnUse">
      <rect width="30" height="30" fill="hsl(140 40% 8%)"/>
      <path d="M 5 15 Q 10 5 15 15 Q 10 25 5 15" fill="hsl(120 80% 30%)" opacity="0.6"/>
      <path d="M 5 15 L 15 15" stroke="hsl(120 80% 40%)" stroke-width="0.5" opacity="0.8"/>
      <path d="M 25 10 Q 28 5 30 10 Q 28 15 25 10" fill="hsl(80 60% 35%)" opacity="0.5"/>
      <path d="M 10 25 Q 15 20 20 25 Q 15 30 10 25" fill="hsl(140 80% 25%)" opacity="0.7"/>
    </pattern>
    <pattern id="branches" width="60" height="60" patternUnits="userSpaceOnUse">
      <rect width="60" height="60" fill="none"/>
      <path d="M 0 30 Q 20 25 40 30 Q 60 35 60 30" stroke="hsl(140 50% 20%)" stroke-width="1" opacity="0.4" fill="none"/>
      <path d="M 30 0 Q 25 20 30 40 Q 35 60 30 60" stroke="hsl(140 50% 20%)" stroke-width="1" opacity="0.4" fill="none"/>
    </pattern>
  </defs>
  <rect width="100" height="100" fill="url(#leaves)"/>
  <rect width="100" height="100" fill="url(#branches)"/>
</svg>